<?xml version="1.2" encoding="UTF-8" standalone="no"?>

<svg
   version="1.1"
   id="svg40"
   width="380"
   height="380"
   viewBox="0 0 390 390"
   xmlns="http://www.w3.org/2000/svg"
   xmlns:svg="http://www.w3.org/2000/svg">
  <defs
     id="defs44" />
  <g
     id="g48"
     transform="matrix(1.3333333,0,0,-1.3333333,0,900)">
    <g
       id="g50"
       transform="matrix(0.11245599,0,0,0.11245599,-361.86127,152.49912)">
      <path
         d="m 3599.86,3668.25 c -40.48,28.4 -108.69,25.18 -108.69,81.3 0,32.79 28.74,42.26 46.66,42.26 21.08,0 58.07,-14.25 69.8,-77.01 0.2,-1.11 1.16,-1.93 2.29,-1.93 h 10.93 c 1.29,0 2.34,1.05 2.34,2.34 v 70.37 c 0,1.29 -1.05,2.34 -2.34,2.34 h -8.68 c -1.29,0 -2.34,1.05 -2.34,2.34 v 0 c 0,1.29 -1.05,2.34 -2.35,2.34 h -2.19 c -0.64,0 -1.26,-0.26 -1.7,-0.73 l -2.4,-2.54 c -0.76,-0.81 -1.99,-0.97 -2.94,-0.38 -6.73,4.19 -33.55,19.76 -60.76,19.76 -53.75,0 -79.62,-37.52 -79.62,-68.46 0,-22.82 9.73,-50.96 42.6,-72 36.6,-26.12 108.69,-25.19 108.69,-81.31 0,-32.79 -28.74,-42.25 -46.65,-42.25 -21.09,0 -58.07,14.24 -69.8,77.01 -0.21,1.1 -1.17,1.92 -2.3,1.92 h -13.27 -38.88 -13.27 c -1.13,0 -2.09,-0.82 -2.3,-1.92 -11.73,-62.77 -48.71,-77.01 -69.8,-77.01 -17.91,0 -46.65,9.46 -46.65,42.25 0,56.12 72.09,55.19 108.69,81.31 32.87,21.04 42.6,49.18 42.6,72 0,30.94 -25.87,68.46 -79.62,68.46 -27.21,0 -54.03,-15.57 -60.76,-19.76 -0.95,-0.59 -2.18,-0.43 -2.94,0.38 l -2.4,2.54 c -0.44,0.47 -1.06,0.73 -1.7,0.73 h -2.19 c -1.3,0 -2.35,-1.05 -2.35,-2.34 v 0 c 0,-1.29 -1.05,-2.34 -2.34,-2.34 h -8.67 c -1.3,0 -2.35,-1.05 -2.35,-2.34 v -70.37 c 0,-1.29 1.05,-2.34 2.35,-2.34 h 10.92 c 1.13,0 2.09,0.82 2.29,1.93 11.73,62.76 48.72,77.01 69.8,77.01 17.92,0 46.66,-9.47 46.66,-42.26 0,-56.12 -68.21,-52.9 -108.69,-81.3 -39.64,-26.88 -42.6,-49.19 -42.6,-72.01 0,-30.59 25.86,-68.46 79.62,-68.46 28.95,0 57.47,17.63 61.8,20.42 0.38,0.25 0.81,0.37 1.27,0.37 h 84.14 c 0.46,0 0.89,-0.12 1.27,-0.37 4.33,-2.79 32.85,-20.42 61.8,-20.42 53.76,0 79.62,37.87 79.62,68.46 0,22.82 -2.95,45.13 -42.6,72.01"
         style="fill:#090a0b;fill-opacity:1;fill-rule:nonzero;stroke:none"
         id="path52" />
      <path
         d="m 3437.59,3541.56 h 40.22 c 0.81,0 1.46,-0.68 1.46,-1.51 v -372.11 c 0,-0.84 -0.65,-1.51 -1.46,-1.51 h -40.22 c -0.81,0 -1.46,0.67 -1.46,1.51 v 372.11 c 0,0.83 0.65,1.51 1.46,1.51"
         style="fill:#090a0b;fill-opacity:1;fill-rule:nonzero;stroke:none"
         id="path54" />
      <path
         d="m 3494.48,3077.26 c -0.87,-1.06 -2.58,-0.44 -2.58,0.93 v 24.28 c 0,0.81 0.65,1.46 1.46,1.46 h 53.72 c -30.86,-3.94 -46.83,-19.57 -52.6,-26.67 z m -0.39,-40.46 60.87,-18.53 c 1.38,-0.42 1.38,-2.36 0,-2.78 l -60.87,-18.53 c -0.93,-0.28 -1.88,0.42 -1.88,1.39 v 37.06 c 0,0.97 0.95,1.67 1.88,1.39 z m 132.67,68.58 v 52.56 c 0,0.8 -0.65,1.45 -1.45,1.45 h -34.27 c -0.81,0 -1.46,-0.65 -1.46,-1.45 v -25.91 c 0,-1.12 -1.22,-1.82 -2.19,-1.26 l -38.98,22.65 c -0.45,0.26 -1.02,0.26 -1.47,-0.01 l -37.74,-22.3 c -0.97,-0.57 -2.2,0.13 -2.2,1.25 v 25.58 c 0,0.8 -0.65,1.45 -1.45,1.45 h -67.96 c -0.81,0 -1.46,-0.65 -1.46,-1.45 v -221.1 c 0,-0.81 0.65,-1.46 1.46,-1.46 h 66.11 c 0.8,0 1.45,0.65 1.45,1.46 v 23.3 c 0,1.08 1.14,1.79 2.11,1.3 l 39.96,-19.98 c 0.41,-0.2 0.91,-0.2 1.32,0.01 l 38.3,19.92 c 0.97,0.5 2.12,-0.2 2.12,-1.29 v -23.26 c 0,-0.81 0.66,-1.46 1.46,-1.46 h 34.89 c 0.8,0 1.45,0.65 1.45,1.46 v 56.25 c 0,0.8 -0.65,1.45 -1.45,1.45 h -74.02 c -1.68,0 -2.02,2.37 -0.41,2.85 l 63.15,18.81 c 1.37,0.41 1.39,2.35 0.03,2.79 l -120.22,38.5 c -0.6,0.19 -1.01,0.75 -1.01,1.38 v 4.54 c 0,0.99 0.96,1.69 1.9,1.39 l 23.36,-7.51 v 8.96 c 0,0.27 0.07,0.52 0.21,0.75 1.62,2.65 12.77,19.06 41.24,19.06 28.2,0 39.41,-14.06 41.18,-16.57 0.18,-0.25 0.26,-0.53 0.26,-0.83 v -11.65 c 0,-0.81 -0.65,-1.46 -1.45,-1.46 h -76.04 l 47.69,-15.34 c 0.15,-0.04 0.3,-0.07 0.45,-0.07 h 53.68 c 0.8,0 1.45,0.66 1.45,1.46 v 40.31 c 0,0.48 -0.23,0.93 -0.63,1.2 -3.91,2.72 -25.61,17.05 -51.91,20.82 h 51.09 c 0.8,0 1.45,0.65 1.45,1.45"
         style="fill:#090a0b;fill-opacity:1;fill-rule:nonzero;stroke:none"
         id="path56" />
      <path
         d="m 4083.01,3436.82 c -18.38,3.44 -35.44,9.26 -51.19,17.47 v 75.8 c 14.77,-11.81 31.58,-20.92 50.45,-27.32 18.87,-6.39 37.33,-9.6 55.38,-9.6 30.84,0 46.27,11.64 46.27,34.95 0,10.17 -4.93,18.13 -14.77,23.87 -9.84,5.74 -25.77,12.23 -47.75,19.44 -10.17,3.29 -16.41,5.42 -18.7,6.4 -23.63,7.88 -42.26,18.54 -55.87,32 -13.62,13.45 -20.42,33.47 -20.42,60.05 0,18.7 4.59,36.01 13.78,51.93 9.18,15.91 23.29,28.63 42.33,38.15 19.02,9.51 42.49,14.27 70.39,14.27 19.36,0 36.01,-1.72 49.96,-5.17 13.94,-3.45 28.79,-8.94 44.54,-16.48 v -76.3 c -13.78,10.5 -28.55,19.2 -44.3,26.08 -15.75,6.9 -31.67,10.34 -47.74,10.34 -14.45,0 -26.01,-2.88 -34.71,-8.61 -8.69,-5.74 -13.04,-14.03 -13.04,-24.86 0,-8.54 2.62,-15.5 7.88,-20.92 5.24,-5.41 11.73,-9.6 19.44,-12.55 7.71,-2.95 20.09,-7.06 37.16,-12.3 20.35,-5.91 37.08,-12.47 50.21,-19.69 13.12,-7.23 23.62,-16.91 31.5,-29.04 7.88,-12.15 11.82,-27.74 11.82,-46.76 0,-20.02 -4.6,-38.08 -13.79,-54.15 -9.19,-16.08 -22.72,-28.79 -40.6,-38.15 -17.89,-9.35 -38.97,-14.02 -63.26,-14.02 -24.94,0 -46.6,1.72 -64.97,5.17"
         style="fill:#4d88cf;fill-opacity:1;fill-rule:nonzero;stroke:none"
         id="path58" />
      <path
         d="m 4530.93,3672.83 c 16.07,-14.44 24.12,-38.07 24.12,-70.88 v -163.42 h -73.35 v 148.17 c 0,31.49 -15.74,47.24 -47.25,47.24 -7.55,0 -15.26,-1.15 -23.13,-3.43 -7.88,-2.31 -13.95,-5.1 -18.21,-8.37 l -0.99,-183.61 h -72.85 v 347.51 h 73.84 v -109.76 c 22.64,12.14 46.09,18.21 70.39,18.21 28.87,0 51.35,-7.23 67.43,-21.66"
         style="fill:#4d88cf;fill-opacity:1;fill-rule:nonzero;stroke:none"
         id="path60" />
      <path
         d="m 4773.1,3508.68 c 9.18,12.63 13.79,31.08 13.79,55.37 0,26.58 -4.53,45.53 -13.54,56.86 -9.04,11.32 -22.73,16.98 -41.11,16.98 -19.03,0 -32.73,-5.66 -41.1,-16.98 -8.37,-11.33 -12.56,-30.28 -12.56,-56.86 0,-25.27 4.36,-43.97 13.05,-56.11 8.69,-12.14 22.23,-18.21 40.61,-18.21 18.04,0 31.67,6.31 40.86,18.95 z m -135.37,-44.05 c -21,22.3 -31.49,55.45 -31.49,99.42 0,45.94 10.41,79.42 31.25,100.41 20.84,21 52.42,31.51 94.75,31.51 42.34,0 74.16,-10.76 95.49,-32.24 21.32,-21.49 32,-54.73 32,-99.68 0,-43.31 -11,-76.29 -32.98,-98.93 -21.99,-22.65 -53.5,-33.97 -94.51,-33.97 -42.01,0 -73.51,11.15 -94.51,33.48"
         style="fill:#4d88cf;fill-opacity:1;fill-rule:nonzero;stroke:none"
         id="path62" />
      <path
         d="m 5067.44,3506.95 c 9.51,11.15 14.28,29.87 14.28,56.12 0,23.63 -4.18,41.42 -12.55,53.4 -8.37,11.98 -22.73,17.97 -43.08,17.97 -29.2,0 -43.79,-5.58 -43.79,-16.74 v -117.14 c 5.89,-3.62 12.46,-6.24 19.68,-7.88 7.21,-1.65 14.27,-2.46 21.17,-2.46 20,0 34.77,5.58 44.29,16.73 z m 54.64,157.77 c 21.98,-20.85 32.98,-55.55 32.98,-104.12 0,-39.05 -9.84,-70.38 -29.53,-94.01 -19.69,-23.62 -46.6,-35.44 -80.72,-35.44 -24.95,0 -45.79,4.44 -62.51,13.29 v -95 h -71.87 v 285.49 c 0,20.01 11.07,35.11 33.22,45.28 22.15,10.17 50.62,15.42 85.4,15.76 40.03,0 71.04,-10.42 93.03,-31.25"
         style="fill:#4d88cf;fill-opacity:1;fill-rule:nonzero;stroke:none"
         id="path64" />
      <path
         d="m 4075.14,3028.21 c -13.46,4.27 -29.7,11.49 -48.73,21.66 v 38.4 c 11.81,-9.84 26.66,-17.97 44.54,-24.36 17.89,-6.41 37.82,-9.6 59.81,-9.6 23.95,0 41.84,5.07 53.65,15.25 11.82,10.17 17.72,23.95 17.72,41.35 0,12.8 -3.44,23.38 -10.34,31.75 -6.89,8.36 -15.09,14.93 -24.61,19.68 -9.52,4.76 -23.79,10.75 -42.82,17.97 -20.35,6.9 -36.51,13.46 -48.48,19.69 -11.99,6.23 -22.24,15.42 -30.77,27.57 -8.53,12.14 -12.79,28.21 -12.79,48.23 0,13.46 3.35,26.58 10.09,39.38 6.72,12.8 17.55,23.46 32.48,32 14.93,8.52 34.21,12.79 57.84,12.79 17.39,0 31.58,-1.64 42.57,-4.92 10.99,-3.28 25.52,-9.35 43.57,-18.21 v -36.43 c -2.3,1.31 -8.45,4.84 -18.46,10.59 -10.01,5.74 -20.35,9.92 -31.01,12.54 -10.67,2.63 -22.24,3.95 -34.7,3.95 -22.64,0 -39.38,-4.68 -50.21,-14.03 -10.83,-9.35 -16.24,-21.09 -16.24,-35.2 0,-12.79 2.87,-23.13 8.61,-31.01 5.74,-7.88 13.45,-14.27 23.14,-19.19 9.67,-4.93 23.37,-10.34 41.09,-16.24 20.35,-6.9 37,-13.72 49.97,-20.43 12.95,-6.73 24.03,-16.33 33.22,-28.79 9.18,-12.48 13.78,-28.39 13.78,-47.76 0,-25.92 -8.61,-47.91 -25.84,-65.95 -17.22,-18.05 -44.88,-27.07 -82.94,-27.07 -22.64,0 -40.69,2.13 -54.14,6.39"
         style="fill:#231f20;fill-opacity:1;fill-rule:nonzero;stroke:none"
         id="path66" />
      <path
         d="m 4333.79,3044.71 c -17.88,16.89 -26.82,40.92 -26.82,72.11 v 155.54 h 35.44 V 3124.7 c 0,-24.95 5.41,-43.25 16.24,-54.89 10.83,-11.66 27.89,-17.48 51.19,-17.48 22.97,0 39.95,5.82 50.95,17.48 10.99,11.64 16.49,29.94 16.49,54.89 v 147.66 h 35.45 v -155.54 c 0,-31.19 -8.95,-55.22 -26.84,-72.11 -17.89,-16.91 -43.23,-25.36 -76.05,-25.36 -32.81,0 -58.16,8.45 -76.05,25.36"
         style="fill:#231f20;fill-opacity:1;fill-rule:nonzero;stroke:none"
         id="path68" />
      <path
         d="m 4747.26,3076.94 c 13.61,16.41 20.43,38.56 20.43,66.46 0,30.84 -5.59,55.37 -16.74,73.58 -11.16,18.21 -31.35,27.33 -60.55,27.33 -17.71,0 -32.73,-2.06 -45.04,-6.17 -12.3,-4.1 -18.46,-9.59 -18.46,-16.48 v -152.1 c 19.69,-11.48 40.04,-17.23 61.04,-17.23 25.92,0 45.69,8.21 59.32,24.61 z m 25.35,168.1 c 21.66,-21.16 32.48,-55.05 32.48,-101.64 0,-38.4 -10.18,-68.6 -30.51,-90.57 -20.35,-21.99 -49.23,-32.98 -86.64,-32.98 -8.54,0 -18.38,1.31 -29.53,3.94 -11.15,2.63 -21.66,6.06 -31.51,10.33 v -114.19 h -35.42 v 308.13 c 0,18.04 9.91,30.59 29.76,37.65 19.86,7.05 43.08,10.74 69.65,11.08 32.81,0 60.06,-10.59 81.72,-31.75"
         style="fill:#231f20;fill-opacity:1;fill-rule:nonzero;stroke:none"
         id="path70" />
      <path
         d="m 5027.32,3076.94 c 13.62,16.41 20.43,38.56 20.43,66.46 0,30.84 -5.58,55.37 -16.73,73.58 -11.18,18.21 -31.35,27.33 -60.55,27.33 -17.72,0 -32.74,-2.06 -45.04,-6.17 -12.3,-4.1 -18.46,-9.59 -18.46,-16.48 v -152.1 c 19.69,-11.48 40.04,-17.23 61.04,-17.23 25.92,0 45.68,8.21 59.31,24.61 z m 25.36,168.1 c 21.64,-21.16 32.48,-55.05 32.48,-101.64 0,-38.4 -10.18,-68.6 -30.53,-90.57 -20.35,-21.99 -49.22,-32.98 -86.62,-32.98 -8.54,0 -18.38,1.31 -29.53,3.94 -11.17,2.63 -21.66,6.06 -31.51,10.33 v -114.19 h -35.44 v 308.13 c 0,18.04 9.93,30.59 29.78,37.65 19.84,7.05 43.07,10.74 69.65,11.08 32.81,0 60.06,-10.59 81.72,-31.75"
         style="fill:#231f20;fill-opacity:1;fill-rule:nonzero;stroke:none"
         id="path72" />
      <path
         d="m 5329.78,3148.81 c 0,30.84 -6.08,54.47 -18.22,70.88 -12.14,16.4 -31.99,24.62 -59.55,24.62 -51.52,0 -77.28,-31.84 -77.28,-95.5 0,-64.65 25.76,-96.97 77.28,-96.97 51.84,0 77.77,32.32 77.77,96.97 z m -162.19,-95.98 c -18.87,22.31 -28.3,54.31 -28.3,95.98 0,42.33 9.6,74.25 28.8,95.74 19.2,21.48 47,32.24 83.42,32.24 38.4,0 66.95,-11.41 85.65,-34.21 18.71,-22.82 28.06,-54.07 28.06,-93.77 0,-40.7 -9.85,-72.44 -29.54,-95.25 -19.68,-22.81 -47.42,-34.21 -83.18,-34.21 -37.74,0 -66.04,11.16 -84.91,33.48"
         style="fill:#231f20;fill-opacity:1;fill-rule:nonzero;stroke:none"
         id="path74" />
      <path
         d="m 5431.66,3252.67 c 12.47,5.24 28.96,10.58 49.47,15.99 20.5,5.42 41.75,8.13 63.74,8.13 3.28,0 8.53,-0.99 15.76,-2.95 v -31.51 c -7.89,0.99 -15.76,1.48 -23.63,1.48 -10.83,0 -20.85,-0.67 -30.03,-1.97 -9.19,-1.31 -22.48,-3.44 -39.87,-6.4 v -208.7 h -35.44 v 225.93"
         style="fill:#231f20;fill-opacity:1;fill-rule:nonzero;stroke:none"
         id="path76" />
      <path
         d="m 5650.21,3039.3 c -11.49,10.98 -17.23,26.65 -17.23,47 v 153.57 h -42.82 v 32.49 h 42.82 v 69.4 h 35.44 v -69.4 h 63.49 v -32.49 h -63.49 v -142.25 c 0,-14.45 2.29,-24.95 6.89,-31.5 4.59,-6.57 13.12,-9.85 25.6,-9.85 12.14,0 22.47,1.97 31,5.91 v -33.47 c -4.59,-1.65 -10.42,-3.03 -17.47,-4.19 -7.06,-1.14 -13.7,-1.72 -19.93,-1.72 -18.05,0 -32.82,5.49 -44.3,16.5"
         style="fill:#231f20;fill-opacity:1;fill-rule:nonzero;stroke:none"
         id="path78" />
      <path
         d="m 3836.26,2935.38 c -2.77,0 -5,2.24 -5,5 v 863.33 c 0,2.76 2.23,5 5,5 2.76,0 5,-2.24 5,-5 v -863.33 c 0,-2.76 -2.24,-5 -5,-5"
         style="fill:#231f20;fill-opacity:1;fill-rule:nonzero;stroke:none"
         id="path80" />
    </g>
  </g>
</svg>
